<svg id="b5fa45de-4652-414f-95df-c339ffdc3a8e" data-name="Layer 1" xmlns="http://www.w3.org/2000/svg" viewBox="0 0 273.96 240"><path d="M433.27,561.48l19.85-34.39h0l11.65-20.17L478.86,529l-13.62,23.58h0l-4.37,7.58h78.26L467.47,436l-39.73,68.82L364.42,614.52A10.32,10.32,0,0,0,373.36,630h20.35Z" transform="translate(-363.02 -390)" fill="#ff3030"/><path d="M635.58,614.52,572.26,504.84,508.94,395.16a10.32,10.32,0,0,0-17.88,0l-10.18,17.63L570.1,567.32,592,605.17H565.13l-12.37-21.43H447.24L420.53,630H626.64A10.32,10.32,0,0,0,635.58,614.52Z" transform="translate(-363.02 -390)" fill="#212b36"/></svg>